<svg width="36" height="36" viewBox="0 0 36 36" fill="none" xmlns="http://www.w3.org/2000/svg">
<path d="M23.5 20C26.5 27 24.7884 33.7762 19.6323 35.8915C9.8474 36.9492 2.11325 30.1919 1 19.1185C1 8.27961 9.50965 0 20.3177 0C29.3027 1.01408 29.5 13.5 23.5 20Z" fill="#F5C599"/>
<circle cx="21.1025" cy="4.8277" r="2" fill="#0460D9"/>
<circle cx="11.2737" cy="8.56018" r="2" fill="#03A688"/>
<circle cx="7" cy="18" r="2" fill="#F23847"/>
<circle cx="10" cy="27" r="2" fill="#BFB41B"/>
<circle cx="18.8291" cy="31.8477" r="2" fill="white"/>
<path fill-rule="evenodd" clip-rule="evenodd" d="M35.2501 19.1251C35.2501 21.0738 34.4677 22.8399 33.2 24.1262L28.1251 31L23.0503 24.1264C21.7824 22.8401 21 21.0739 21 19.1251C21 15.19 24.19 12 28.1251 12C32.0601 12 35.2501 15.19 35.2501 19.1251ZM28.2016 22.3907C30.4018 22.3907 32.1855 20.6628 32.1855 18.5313C32.1855 16.3998 30.4018 14.6719 28.2016 14.6719C26.0013 14.6719 24.2177 16.3998 24.2177 18.5313C24.2177 20.6628 26.0013 22.3907 28.2016 22.3907Z" fill="#F23847"/>
</svg>
