<svg width="272" height="47" viewBox="0 0 272 47" fill="none" xmlns="http://www.w3.org/2000/svg">
<path d="M14.0732 37.45C11.5066 37.45 9.07324 37.1167 6.77324 36.45C4.50658 35.75 2.65658 34.8167 1.22324 33.65C0.456576 33.0833 0.0732423 32.2833 0.0732423 31.25C0.0732423 30.55 0.273242 29.95 0.673242 29.45C1.10658 28.9167 1.60658 28.65 2.17324 28.65C2.77324 28.65 3.45658 28.8833 4.22324 29.35C5.65658 30.3833 7.15658 31.1333 8.72324 31.6C10.2899 32.0667 12.0232 32.3 13.9232 32.3C16.3566 32.3 18.2232 31.8833 19.5232 31.05C20.8232 30.1833 21.4732 28.9333 21.4732 27.3C21.4732 26.0333 20.8566 25.0667 19.6232 24.4C18.4232 23.7 16.4066 23.0333 13.5732 22.4C10.6399 21.7667 8.25658 21.0333 6.42324 20.2C4.58991 19.3667 3.20658 18.3 2.27324 17C1.33991 15.7 0.873242 14.05 0.873242 12.05C0.873242 9.98333 1.45658 8.13333 2.62324 6.5C3.78991 4.86667 5.40658 3.6 7.47324 2.7C9.57324 1.76666 11.9232 1.3 14.5232 1.3C19.2899 1.3 23.1732 2.56666 26.1732 5.1C26.6066 5.46667 26.9066 5.83333 27.0732 6.2C27.2732 6.53333 27.3732 6.96667 27.3732 7.5C27.3732 8.2 27.1566 8.81667 26.7232 9.35C26.3232 9.85 25.8399 10.1 25.2732 10.1C24.9399 10.1 24.6232 10.05 24.3232 9.95C24.0566 9.85 23.6899 9.66666 23.2232 9.4C21.8566 8.4 20.5232 7.66667 19.2232 7.2C17.9566 6.7 16.3899 6.45 14.5232 6.45C12.2566 6.45 10.4566 6.91667 9.12324 7.85C7.82324 8.75 7.17324 10.0167 7.17324 11.65C7.17324 13.0167 7.75658 14.0667 8.92324 14.8C10.0899 15.5333 12.0732 16.2167 14.8732 16.85C17.8399 17.5167 20.2399 18.2667 22.0732 19.1C23.9399 19.9 25.3566 20.9333 26.3232 22.2C27.3232 23.4667 27.8232 25.05 27.8232 26.95C27.8232 29.0167 27.2399 30.85 26.0732 32.45C24.9399 34.0167 23.3232 35.25 21.2232 36.15C19.1566 37.0167 16.7732 37.45 14.0732 37.45ZM52.508 12.05C53.4747 12.05 54.2413 12.3167 54.808 12.85C55.3747 13.3833 55.658 14.1 55.658 15V34.4C55.658 35.2667 55.358 35.9667 54.758 36.5C54.1913 37.0333 53.4413 37.3 52.508 37.3C51.608 37.3 50.8913 37.05 50.358 36.55C49.8247 36.05 49.558 35.3667 49.558 34.5V33.25C48.7913 34.5833 47.758 35.6167 46.458 36.35C45.158 37.05 43.6913 37.4 42.058 37.4C36.058 37.4 33.058 34.0333 33.058 27.3V15C33.058 14.1 33.3413 13.3833 33.908 12.85C34.4747 12.3167 35.2247 12.05 36.158 12.05C37.1247 12.05 37.8913 12.3167 38.458 12.85C39.0247 13.3833 39.308 14.1 39.308 15V27.35C39.308 29.0833 39.658 30.3667 40.358 31.2C41.058 32.0333 42.158 32.45 43.658 32.45C45.3913 32.45 46.7747 31.8833 47.808 30.75C48.8747 29.5833 49.408 28.05 49.408 26.15V15C49.408 14.1 49.6913 13.3833 50.258 12.85C50.8247 12.3167 51.5747 12.05 52.508 12.05ZM75.8131 12.05C76.6798 11.9833 77.3631 12.1667 77.8631 12.6C78.3631 13.0333 78.6131 13.6833 78.6131 14.55C78.6131 15.45 78.3964 16.1167 77.9631 16.55C77.5298 16.9833 76.7464 17.2667 75.6131 17.4L74.1131 17.55C72.1464 17.75 70.6964 18.4167 69.7631 19.55C68.8631 20.6833 68.4131 22.1 68.4131 23.8V34.3C68.4131 35.2667 68.1131 36.0167 67.5131 36.55C66.9131 37.05 66.1631 37.3 65.2631 37.3C64.3631 37.3 63.6131 37.05 63.0131 36.55C62.4464 36.0167 62.1631 35.2667 62.1631 34.3V14.95C62.1631 14.0167 62.4464 13.3 63.0131 12.8C63.6131 12.3 64.3464 12.05 65.2131 12.05C66.0798 12.05 66.7798 12.3 67.3131 12.8C67.8464 13.2667 68.1131 13.95 68.1131 14.85V16.85C68.7464 15.3833 69.6798 14.25 70.9131 13.45C72.1798 12.65 73.5798 12.2 75.1131 12.1L75.8131 12.05ZM95.3537 11.95C97.4537 11.95 99.3204 12.4833 100.954 13.55C102.62 14.6167 103.904 16.1333 104.804 18.1C105.737 20.0333 106.204 22.2667 106.204 24.8C106.204 27.3333 105.737 29.55 104.804 31.45C103.904 33.35 102.637 34.8167 101.004 35.85C99.3704 36.8833 97.487 37.4 95.3537 37.4C93.6204 37.4 92.0704 37.0333 90.7037 36.3C89.337 35.5667 88.287 34.55 87.5537 33.25V43.45C87.5537 44.3167 87.2704 45 86.7037 45.5C86.137 46 85.387 46.25 84.4537 46.25C83.5204 46.25 82.7537 45.9833 82.1537 45.45C81.587 44.9167 81.3037 44.2167 81.3037 43.35V15C81.3037 14.1 81.5704 13.3833 82.1037 12.85C82.6704 12.3167 83.4204 12.05 84.3537 12.05C85.287 12.05 86.037 12.3167 86.6037 12.85C87.1704 13.3833 87.4537 14.1 87.4537 15V16.25C88.187 14.8833 89.237 13.8333 90.6037 13.1C92.0037 12.3333 93.587 11.95 95.3537 11.95ZM93.7037 32.55C95.6704 32.55 97.2037 31.8833 98.3037 30.55C99.4037 29.1833 99.9537 27.2667 99.9537 24.8C99.9537 22.2667 99.4037 20.3 98.3037 18.9C97.2037 17.5 95.6704 16.8 93.7037 16.8C91.7037 16.8 90.1537 17.4833 89.0537 18.85C87.987 20.2167 87.4537 22.1667 87.4537 24.7C87.4537 27.2 87.987 29.1333 89.0537 30.5C90.1537 31.8667 91.7037 32.55 93.7037 32.55ZM124.983 12.05C125.85 11.9833 126.533 12.1667 127.033 12.6C127.533 13.0333 127.783 13.6833 127.783 14.55C127.783 15.45 127.566 16.1167 127.133 16.55C126.7 16.9833 125.916 17.2667 124.783 17.4L123.283 17.55C121.316 17.75 119.866 18.4167 118.933 19.55C118.033 20.6833 117.583 22.1 117.583 23.8V34.3C117.583 35.2667 117.283 36.0167 116.683 36.55C116.083 37.05 115.333 37.3 114.433 37.3C113.533 37.3 112.783 37.05 112.183 36.55C111.616 36.0167 111.333 35.2667 111.333 34.3V14.95C111.333 14.0167 111.616 13.3 112.183 12.8C112.783 12.3 113.516 12.05 114.383 12.05C115.25 12.05 115.95 12.3 116.483 12.8C117.016 13.2667 117.283 13.95 117.283 14.85V16.85C117.916 15.3833 118.85 14.25 120.083 13.45C121.35 12.65 122.75 12.2 124.283 12.1L124.983 12.05ZM133.574 37.3C132.674 37.3 131.924 37.05 131.324 36.55C130.757 36.0167 130.474 35.2667 130.474 34.3V15C130.474 14.0333 130.757 13.3 131.324 12.8C131.924 12.3 132.674 12.05 133.574 12.05C134.474 12.05 135.224 12.3 135.824 12.8C136.424 13.3 136.724 14.0333 136.724 15V34.3C136.724 35.2667 136.424 36.0167 135.824 36.55C135.224 37.05 134.474 37.3 133.574 37.3ZM133.574 7.6C132.44 7.6 131.54 7.3 130.874 6.7C130.207 6.06667 129.874 5.25 129.874 4.25C129.874 3.25 130.207 2.45 130.874 1.85C131.54 1.25 132.44 0.949999 133.574 0.949999C134.674 0.949999 135.557 1.25 136.224 1.85C136.924 2.45 137.274 3.25 137.274 4.25C137.274 5.25 136.94 6.06667 136.274 6.7C135.607 7.3 134.707 7.6 133.574 7.6ZM152.019 37.4C148.386 37.4 145.452 36.6833 143.219 35.25C142.152 34.6167 141.619 33.7167 141.619 32.55C141.619 31.8833 141.802 31.35 142.169 30.95C142.536 30.5167 142.986 30.3 143.519 30.3C144.086 30.3 144.869 30.5667 145.869 31.1C146.936 31.6 147.902 31.9833 148.769 32.25C149.669 32.5167 150.802 32.65 152.169 32.65C153.569 32.65 154.652 32.4167 155.419 31.95C156.219 31.4833 156.619 30.8333 156.619 30C156.619 29.4333 156.452 28.9833 156.119 28.65C155.819 28.3167 155.252 28.0167 154.419 27.75C153.619 27.45 152.386 27.1167 150.719 26.75C147.752 26.15 145.619 25.3 144.319 24.2C143.052 23.1 142.419 21.5833 142.419 19.65C142.419 18.1833 142.852 16.8667 143.719 15.7C144.586 14.5 145.769 13.5833 147.269 12.95C148.802 12.2833 150.536 11.95 152.469 11.95C153.869 11.95 155.219 12.1333 156.519 12.5C157.819 12.8333 158.986 13.3333 160.019 14C161.086 14.6667 161.619 15.55 161.619 16.65C161.619 17.3167 161.436 17.8833 161.069 18.35C160.702 18.7833 160.252 19 159.719 19C159.352 19 158.986 18.9333 158.619 18.8C158.286 18.6333 157.852 18.4 157.319 18.1C156.352 17.6 155.519 17.2333 154.819 17C154.119 16.7333 153.252 16.6 152.219 16.6C150.986 16.6 150.002 16.85 149.269 17.35C148.569 17.85 148.219 18.5333 148.219 19.4C148.219 20.2333 148.586 20.8667 149.319 21.3C150.052 21.7333 151.469 22.1667 153.569 22.6C155.802 23.0667 157.552 23.6 158.819 24.2C160.086 24.8 160.986 25.55 161.519 26.45C162.086 27.35 162.369 28.5 162.369 29.9C162.369 32.1667 161.419 33.9833 159.519 35.35C157.652 36.7167 155.152 37.4 152.019 37.4ZM186.787 30.3C187.353 30.3 187.803 30.5167 188.137 30.95C188.503 31.3833 188.687 31.9667 188.687 32.7C188.687 33.7333 188.07 34.6 186.837 35.3C185.703 35.9333 184.42 36.45 182.987 36.85C181.553 37.2167 180.187 37.4 178.887 37.4C174.953 37.4 171.837 36.2667 169.537 34C167.237 31.7333 166.087 28.6333 166.087 24.7C166.087 22.2 166.587 19.9833 167.587 18.05C168.587 16.1167 169.987 14.6167 171.787 13.55C173.62 12.4833 175.687 11.95 177.987 11.95C180.187 11.95 182.103 12.4333 183.737 13.4C185.37 14.3667 186.637 15.7333 187.537 17.5C188.437 19.2667 188.887 21.35 188.887 23.75C188.887 25.1833 188.253 25.9 186.987 25.9H172.237C172.437 28.2 173.087 29.9 174.187 31C175.287 32.0667 176.887 32.6 178.987 32.6C180.053 32.6 180.987 32.4667 181.787 32.2C182.62 31.9333 183.553 31.5667 184.587 31.1C185.587 30.5667 186.32 30.3 186.787 30.3ZM178.137 16.35C176.437 16.35 175.07 16.8833 174.037 17.95C173.037 19.0167 172.437 20.55 172.237 22.55H183.537C183.47 20.5167 182.97 18.9833 182.037 17.95C181.103 16.8833 179.803 16.35 178.137 16.35ZM239.423 1.5C240.357 1.5 241.107 1.8 241.673 2.4C242.24 2.96667 242.523 3.73333 242.523 4.7V34.3C242.523 35.2333 242.257 35.9667 241.723 36.5C241.19 37.0333 240.49 37.3 239.623 37.3C238.757 37.3 238.073 37.0333 237.573 36.5C237.073 35.9667 236.823 35.2333 236.823 34.3V13.7L228.323 29.8C227.923 30.5333 227.49 31.0833 227.023 31.45C226.557 31.7833 226.007 31.95 225.373 31.95C224.74 31.95 224.19 31.7833 223.723 31.45C223.257 31.1167 222.823 30.5667 222.423 29.8L213.873 13.95V34.3C213.873 35.2 213.607 35.9333 213.073 36.5C212.573 37.0333 211.89 37.3 211.023 37.3C210.157 37.3 209.473 37.0333 208.973 36.5C208.473 35.9667 208.223 35.2333 208.223 34.3V4.7C208.223 3.73333 208.49 2.96667 209.023 2.4C209.59 1.8 210.34 1.5 211.273 1.5C212.573 1.5 213.59 2.21666 214.323 3.65L225.423 24.8L236.473 3.65C237.207 2.21666 238.19 1.5 239.423 1.5ZM268.964 30.3C269.531 30.3 269.981 30.5167 270.314 30.95C270.681 31.3833 270.864 31.9667 270.864 32.7C270.864 33.7333 270.248 34.6 269.014 35.3C267.881 35.9333 266.598 36.45 265.164 36.85C263.731 37.2167 262.364 37.4 261.064 37.4C257.131 37.4 254.014 36.2667 251.714 34C249.414 31.7333 248.264 28.6333 248.264 24.7C248.264 22.2 248.764 19.9833 249.764 18.05C250.764 16.1167 252.164 14.6167 253.964 13.55C255.798 12.4833 257.864 11.95 260.164 11.95C262.364 11.95 264.281 12.4333 265.914 13.4C267.548 14.3667 268.814 15.7333 269.714 17.5C270.614 19.2667 271.064 21.35 271.064 23.75C271.064 25.1833 270.431 25.9 269.164 25.9H254.414C254.614 28.2 255.264 29.9 256.364 31C257.464 32.0667 259.064 32.6 261.164 32.6C262.231 32.6 263.164 32.4667 263.964 32.2C264.798 31.9333 265.731 31.5667 266.764 31.1C267.764 30.5667 268.498 30.3 268.964 30.3ZM260.314 16.35C258.614 16.35 257.248 16.8833 256.214 17.95C255.214 19.0167 254.614 20.55 254.414 22.55H265.714C265.648 20.5167 265.148 18.9833 264.214 17.95C263.281 16.8833 261.981 16.35 260.314 16.35Z" fill="black"/>
</svg>
